<?xml version="1.0" encoding="UTF-8" standalone="no"?>
<!DOCTYPE svg PUBLIC "-//W3C//DTD SVG 1.1//EN" "http://www.w3.org/Graphics/SVG/1.1/DTD/svg11.dtd">
<svg width="100%" height="100%" viewBox="0 0 3633 800" version="1.1" xmlns="http://www.w3.org/2000/svg" xmlns:xlink="http://www.w3.org/1999/xlink" xml:space="preserve" xmlns:serif="http://www.serif.com/" style="fill-rule:evenodd;clip-rule:evenodd;stroke-linejoin:round;stroke-miterlimit:2;">
    <g transform="matrix(1,0,0,1,-200,-2100)">
        <g id="logo" transform="matrix(4.22651,0,0,4.22651,-35.645,2399.94)">
            <path d="M915.095,-7.684C915.095,3.754 913.986,14.801 911.767,25.457C909.549,36.113 906.486,46.113 902.58,55.457C898.674,64.801 894.033,73.332 888.658,81.051C883.283,88.769 877.439,95.379 871.127,100.879C864.814,106.379 858.142,110.66 851.111,113.722C844.08,116.785 836.97,118.316 829.783,118.316C824.283,118.316 820.033,117.394 817.033,115.551C814.033,113.707 812.533,111.222 812.533,108.097C812.533,106.91 812.72,105.754 813.095,104.629C813.47,103.504 813.97,102.504 814.595,101.629C815.22,100.754 815.97,100.051 816.845,99.519C817.72,98.988 818.658,98.722 819.658,98.722C820.845,98.722 821.83,99.316 822.611,100.504C823.392,101.691 824.22,102.988 825.095,104.394C825.97,105.801 827.033,107.097 828.283,108.285C829.533,109.472 831.252,110.066 833.439,110.066C836.252,110.066 839.189,109.582 842.252,108.613C845.314,107.644 848.392,106.254 851.486,104.441C854.58,102.629 857.674,100.426 860.767,97.832C863.861,95.238 866.908,92.347 869.908,89.16C868.158,82.847 866.142,75.957 863.861,68.488C861.58,61.019 859.174,53.504 856.642,45.941C854.111,38.379 851.517,31.082 848.861,24.051C846.205,17.019 843.611,10.785 841.08,5.347C838.549,-0.09 836.111,-4.449 833.767,-7.731C831.424,-11.012 829.345,-12.653 827.533,-12.653C826.345,-12.653 825.424,-12.465 824.767,-12.09C824.111,-11.715 823.345,-11.184 822.47,-10.496L820.595,-12.84C821.845,-13.903 823.158,-14.996 824.533,-16.121C825.908,-17.246 827.533,-18.278 829.408,-19.215C831.283,-20.153 833.47,-20.918 835.97,-21.512C838.47,-22.106 841.47,-22.403 844.97,-22.403C848.783,-22.403 852.33,-21.543 855.611,-19.824C858.892,-18.106 861.877,-14.934 864.564,-10.309C866.502,-6.871 868.517,-2.746 870.611,2.066C872.705,6.879 874.814,12.254 876.939,18.191C879.064,24.129 881.205,30.551 883.361,37.457C885.517,44.363 887.689,51.597 889.877,59.16C893.752,51.035 896.877,42.426 899.252,33.332C901.627,24.238 902.814,14.879 902.814,5.254C902.814,1.816 902.595,-1.121 902.158,-3.559C901.72,-5.996 901.22,-8.074 900.658,-9.793C900.095,-11.512 899.595,-12.981 899.158,-14.199C898.72,-15.418 898.502,-16.496 898.502,-17.434C898.502,-18.371 898.877,-19.168 899.627,-19.824C900.377,-20.481 901.283,-20.996 902.345,-21.371C903.408,-21.746 904.486,-22.012 905.58,-22.168C906.674,-22.324 907.595,-22.403 908.345,-22.403C910.033,-22.403 911.33,-22.059 912.236,-21.371C913.142,-20.684 913.814,-19.699 914.252,-18.418C914.689,-17.137 914.939,-15.59 915.002,-13.778C915.064,-11.965 915.095,-9.934 915.095,-7.684ZM792.189,28.222C792.189,20.347 791.83,14.051 791.111,9.332C790.392,4.613 789.439,1.019 788.252,-1.449C787.064,-3.918 785.752,-5.543 784.314,-6.324C782.877,-7.106 781.408,-7.496 779.908,-7.496C778.095,-7.496 776.486,-7.012 775.08,-6.043C773.674,-5.074 772.455,-3.965 771.424,-2.715C770.392,-1.465 769.517,-0.215 768.799,1.035C768.08,2.285 767.47,3.222 766.97,3.847L766.97,66.472C766.97,67.285 766.845,68.269 766.595,69.426C766.345,70.582 765.736,71.676 764.767,72.707C763.799,73.738 762.361,74.613 760.455,75.332C758.549,76.051 755.939,76.41 752.627,76.41C749.314,76.41 746.705,76.019 744.799,75.238C742.892,74.457 741.439,73.535 740.439,72.472C739.439,71.41 738.814,70.316 738.564,69.191C738.314,68.066 738.189,67.16 738.189,66.472L738.189,-5.903C738.189,-7.715 737.767,-9.293 736.924,-10.637C736.08,-11.981 734.658,-12.653 732.658,-12.653C731.595,-12.653 730.689,-12.465 729.939,-12.09C729.189,-11.715 728.377,-11.184 727.502,-10.496L725.533,-12.84C726.97,-14.028 728.58,-15.199 730.361,-16.356C732.142,-17.512 734.064,-18.528 736.127,-19.403C738.189,-20.278 740.408,-20.996 742.783,-21.559C745.158,-22.121 747.658,-22.403 750.283,-22.403C754.345,-22.403 757.502,-21.731 759.752,-20.387C762.002,-19.043 763.658,-17.434 764.72,-15.559C765.783,-13.684 766.424,-11.731 766.642,-9.699C766.861,-7.668 766.97,-5.965 766.97,-4.59C769.283,-7.903 771.908,-10.871 774.845,-13.496C776.033,-14.621 777.361,-15.715 778.83,-16.778C780.299,-17.84 781.861,-18.793 783.517,-19.637C785.174,-20.481 786.924,-21.153 788.767,-21.653C790.611,-22.153 792.502,-22.403 794.439,-22.403C798.689,-22.403 802.455,-21.59 805.736,-19.965C809.017,-18.34 811.783,-15.621 814.033,-11.809C816.283,-7.996 818.002,-2.949 819.189,3.332C820.377,9.613 820.97,17.41 820.97,26.722C820.97,35.785 820.158,43.66 818.533,50.347C816.908,57.035 814.783,62.722 812.158,67.41C809.533,72.097 806.564,75.926 803.252,78.894C799.939,81.863 796.595,84.191 793.22,85.879C789.845,87.566 786.611,88.738 783.517,89.394C780.424,90.051 777.752,90.41 775.502,90.472L774.47,86.629C776.345,86.191 778.08,85.504 779.674,84.566C781.267,83.629 782.72,82.254 784.033,80.441C785.345,78.629 786.502,76.332 787.502,73.551C788.502,70.769 789.361,67.285 790.08,63.097C790.799,58.91 791.33,53.957 791.674,48.238C792.017,42.519 792.189,35.847 792.189,28.222ZM713.439,66.472C713.439,67.285 713.299,68.269 713.017,69.426C712.736,70.582 712.08,71.676 711.049,72.707C710.017,73.738 708.533,74.613 706.595,75.332C704.658,76.051 702.033,76.41 698.72,76.41C695.408,76.41 692.814,76.019 690.939,75.238C689.064,74.457 687.658,73.535 686.72,72.472C685.783,71.41 685.205,70.316 684.986,69.191C684.767,68.066 684.658,67.16 684.658,66.472L684.658,-5.903C684.658,-7.715 684.236,-9.293 683.392,-10.637C682.549,-11.981 681.127,-12.653 679.127,-12.653C678.064,-12.653 677.158,-12.465 676.408,-12.09C675.658,-11.715 674.845,-11.184 673.97,-10.496L672.002,-12.84C673.439,-14.028 675.049,-15.199 676.83,-16.356C678.611,-17.512 680.533,-18.528 682.595,-19.403C684.658,-20.278 686.877,-20.996 689.252,-21.559C691.627,-22.121 694.127,-22.403 696.752,-22.403C700.814,-22.403 703.97,-21.856 706.22,-20.762C708.47,-19.668 710.127,-18.324 711.189,-16.731C712.252,-15.137 712.892,-13.434 713.111,-11.621C713.33,-9.809 713.439,-8.215 713.439,-6.84L713.439,66.472ZM681.752,-43.778C681.752,-45.528 682.142,-47.199 682.924,-48.793C683.705,-50.387 684.799,-51.778 686.205,-52.965C687.611,-54.153 689.236,-55.09 691.08,-55.778C692.924,-56.465 694.939,-56.809 697.127,-56.809C699.252,-56.809 701.236,-56.465 703.08,-55.778C704.924,-55.09 706.533,-54.153 707.908,-52.965C709.283,-51.778 710.361,-50.387 711.142,-48.793C711.924,-47.199 712.314,-45.528 712.314,-43.778C712.314,-41.965 711.924,-40.278 711.142,-38.715C710.361,-37.153 709.283,-35.793 707.908,-34.637C706.533,-33.481 704.924,-32.559 703.08,-31.871C701.236,-31.184 699.252,-30.84 697.127,-30.84C694.939,-30.84 692.924,-31.184 691.08,-31.871C689.236,-32.559 687.611,-33.481 686.205,-34.637C684.799,-35.793 683.705,-37.153 682.924,-38.715C682.142,-40.278 681.752,-41.965 681.752,-43.778ZM589.408,-4.778C589.033,-7.278 588.424,-9.215 587.58,-10.59C586.736,-11.965 585.314,-12.653 583.314,-12.653C582.252,-12.653 581.33,-12.465 580.549,-12.09C579.767,-11.715 578.939,-11.184 578.064,-10.496L576.189,-12.84C577.627,-14.028 579.236,-15.199 581.017,-16.356C582.799,-17.512 584.72,-18.528 586.783,-19.403C588.845,-20.278 591.064,-20.996 593.439,-21.559C595.814,-22.121 598.314,-22.403 600.939,-22.403C604.689,-22.403 607.72,-21.762 610.033,-20.481C612.345,-19.199 614.174,-17.606 615.517,-15.699C616.861,-13.793 617.814,-11.746 618.377,-9.559C618.939,-7.371 619.345,-5.403 619.595,-3.653C621.908,15.285 624.502,29.629 627.377,39.379C630.252,49.129 633.658,54.004 637.595,54.004C639.783,54.004 641.892,52.816 643.924,50.441C645.955,48.066 647.736,44.816 649.267,40.691C650.799,36.566 652.033,31.754 652.97,26.254C653.908,20.754 654.377,14.879 654.377,8.629C654.377,4.504 654.095,1.019 653.533,-1.824C652.97,-4.668 652.345,-7.059 651.658,-8.996C650.97,-10.934 650.345,-12.543 649.783,-13.824C649.22,-15.106 648.939,-16.246 648.939,-17.246C648.939,-18.184 649.314,-18.965 650.064,-19.59C650.814,-20.215 651.705,-20.746 652.736,-21.184C653.767,-21.621 654.83,-21.934 655.924,-22.121C657.017,-22.309 657.908,-22.403 658.595,-22.403C660.408,-22.403 661.72,-22.153 662.533,-21.653C663.345,-21.153 664.002,-20.184 664.502,-18.746C665.064,-16.934 665.455,-14.543 665.674,-11.574C665.892,-8.606 666.002,-5.434 666.002,-2.059C666.002,2.754 665.674,8.035 665.017,13.785C664.361,19.535 663.361,25.316 662.017,31.129C660.674,36.941 658.97,42.566 656.908,48.004C654.845,53.441 652.392,58.269 649.549,62.488C646.705,66.707 643.486,70.082 639.892,72.613C636.299,75.144 632.283,76.41 627.845,76.41C622.658,76.41 618.158,74.91 614.345,71.91C610.533,68.91 607.299,65.004 604.642,60.191C601.986,55.379 599.783,49.972 598.033,43.972C596.283,37.972 594.861,31.957 593.767,25.926C592.674,19.894 591.799,14.176 591.142,8.769C590.486,3.363 589.908,-1.153 589.408,-4.778ZM487.595,26.91C487.595,18.722 488.783,11.551 491.158,5.394C493.533,-0.762 496.705,-5.903 500.674,-10.028C504.642,-14.153 509.252,-17.246 514.502,-19.309C519.752,-21.371 525.252,-22.403 531.002,-22.403C536.752,-22.403 542.252,-21.449 547.502,-19.543C552.752,-17.637 557.361,-14.715 561.33,-10.778C565.299,-6.84 568.47,-1.856 570.845,4.176C573.22,10.207 574.408,17.347 574.408,25.597C574.408,33.785 573.22,41.035 570.845,47.347C568.47,53.66 565.299,58.972 561.33,63.285C557.361,67.597 552.752,70.863 547.502,73.082C542.252,75.301 536.752,76.41 531.002,76.41C525.252,76.41 519.752,75.363 514.502,73.269C509.252,71.176 504.642,68.066 500.674,63.941C496.705,59.816 493.533,54.66 491.158,48.472C488.783,42.285 487.595,35.097 487.595,26.91ZM545.252,25.972C545.252,20.972 545.08,16.144 544.736,11.488C544.392,6.832 543.72,2.691 542.72,-0.934C541.72,-4.559 540.283,-7.449 538.408,-9.606C536.533,-11.762 534.064,-12.84 531.002,-12.84C527.939,-12.84 525.47,-11.699 523.595,-9.418C521.72,-7.137 520.283,-4.137 519.283,-0.418C518.283,3.301 517.627,7.535 517.314,12.285C517.002,17.035 516.845,21.91 516.845,26.91C516.845,31.91 517.002,36.801 517.314,41.582C517.627,46.363 518.283,50.629 519.283,54.379C520.283,58.129 521.72,61.144 523.595,63.426C525.47,65.707 527.939,66.847 531.002,66.847C534.064,66.847 536.533,65.66 538.408,63.285C540.283,60.91 541.72,57.785 542.72,53.91C543.72,50.035 544.392,45.66 544.736,40.785C545.08,35.91 545.252,30.972 545.252,25.972ZM73.416,9.859C73.348,9.573 73.28,9.287 73.214,9.006C73.074,8.421 72.939,7.861 72.823,7.383C72.775,7.183 72.603,7.037 72.398,7.022C72.193,7.007 72.001,7.126 71.924,7.317C71.714,7.84 71.487,8.401 71.332,8.784C71.302,8.859 71.272,8.933 71.24,9.006C71.025,9.514 70.788,9.989 70.531,10.426C69.412,12.322 67.59,12.999 66.326,12.999C62.289,12.999 62.843,9.523 59.918,9.479C59.161,9.468 57.647,9.479 57.647,9.479C56.602,9.479 55.754,8.631 55.754,7.587C55.754,6.542 56.602,5.694 57.647,5.694L59.839,5.694C62.348,5.694 64.393,7.682 64.93,8.065C65.331,8.352 65.949,9.101 66.463,7.963C66.629,7.597 66.847,6.865 67.06,6.167C67.213,5.663 67.366,5.176 67.499,4.859C67.6,4.617 67.692,4.401 67.765,4.232C68.958,1.478 70.324,-0.607 72.802,-0.521C73.014,-0.514 73.219,-0.491 73.416,-0.455C74.498,-0.258 75.351,0.325 75.905,0.822C76.268,1.149 76.502,1.438 76.589,1.558C77.434,2.721 78.091,4.692 78.628,6.887C78.683,7.101 78.881,7.248 79.103,7.239C79.324,7.23 79.51,7.068 79.548,6.85C79.829,5.235 80.118,3.519 80.426,1.805C81.423,-3.736 82.6,-9.26 84.024,-12.085C84.599,-13.225 85.844,-15.473 88.458,-15.46C90.683,-15.45 91.947,-13.201 92.36,-12.132C93.91,-8.12 94.893,3.013 95.781,14.156C96.076,17.852 96.367,21.549 96.681,24.961C96.704,25.203 96.908,25.388 97.151,25.389C97.395,25.389 97.599,25.204 97.623,24.962C98.274,18.011 98.874,9.524 99.504,1.038C100.718,-15.313 102.097,-31.657 104.072,-37.544C104.634,-39.216 105.747,-41.683 108.348,-41.727C110.727,-41.768 112.148,-38.784 112.651,-36.927C114.562,-29.882 115.763,-10.318 116.811,9.251C117.259,17.608 117.685,25.965 118.141,33.314C118.158,33.562 118.364,33.755 118.613,33.756C118.861,33.756 119.068,33.564 119.086,33.315C119.607,25.473 120.094,16.451 120.593,7.43C121.714,-12.825 122.922,-33.078 124.653,-40.37C125.094,-42.227 126.286,-45.312 128.811,-45.359C131.392,-45.406 132.487,-42.479 132.952,-40.724C134.689,-34.155 135.912,-15.912 137.064,2.335C137.76,13.365 138.441,24.396 139.229,32.753C139.253,32.99 139.451,33.173 139.69,33.178C139.929,33.183 140.134,33.008 140.168,32.771C141.046,26.322 141.902,18.366 142.772,10.41C144.414,-4.603 146.153,-19.608 148.105,-25.012C148.668,-26.572 150.103,-28.987 152.264,-28.949C154.678,-28.907 155.804,-26.673 156.225,-25.574C157.803,-21.459 158.651,-10.037 159.527,1.394C160.153,9.567 160.827,17.742 161.944,22.973C161.991,23.192 162.045,23.415 162.103,23.636C162.154,23.835 162.327,23.978 162.532,23.991C162.736,24.003 162.926,23.883 163.001,23.692C163.678,21.326 164.985,16.622 165.642,13.448C166.825,7.729 168.092,2.035 169.838,-0.878C171.178,-3.115 172.925,-4.117 174.714,-4.113C178.349,-4.104 180.347,-1.408 181.464,2.361C181.969,4.064 182.737,8.521 183.975,8.53C185.133,8.538 186.322,6.365 186.725,5.88C188.15,4.162 190.165,3.338 191.757,3.055C193.597,2.728 196.034,3.192 197.281,3.537C199.116,4.044 200.247,4.747 203.263,4.747L255.717,4.747C255.592,2.27 255.342,0.079 254.965,-1.824C254.403,-4.668 253.778,-7.059 253.09,-8.996C252.403,-10.934 251.778,-12.543 251.215,-13.824C250.653,-15.106 250.372,-16.246 250.372,-17.246C250.372,-18.184 250.747,-18.965 251.497,-19.59C252.247,-20.215 253.137,-20.746 254.168,-21.184C255.2,-21.621 256.262,-21.934 257.356,-22.121C258.45,-22.309 259.34,-22.403 260.028,-22.403C261.84,-22.403 263.153,-22.153 263.965,-21.653C264.778,-21.153 265.434,-20.184 265.934,-18.746C266.497,-16.934 266.887,-14.543 267.106,-11.574C267.325,-8.606 267.434,-5.434 267.434,-2.059C267.434,0.114 267.367,2.383 267.233,4.747L286.09,4.747L286.09,-4.59C286.09,-5.153 286.059,-5.762 285.997,-6.418C285.934,-7.074 285.778,-7.699 285.528,-8.293C285.278,-8.887 284.903,-9.371 284.403,-9.746C283.903,-10.121 283.184,-10.309 282.247,-10.309C281.122,-10.309 280.075,-9.887 279.106,-9.043C278.137,-8.199 277.278,-7.34 276.528,-6.465L274.184,-8.434C275.122,-9.746 276.293,-11.199 277.7,-12.793C279.106,-14.387 280.809,-15.903 282.809,-17.34C284.809,-18.778 287.106,-19.981 289.7,-20.949C292.293,-21.918 295.184,-22.403 298.372,-22.403C301.122,-22.403 303.528,-22.043 305.59,-21.324C307.653,-20.606 309.372,-19.637 310.747,-18.418C312.122,-17.199 313.153,-15.762 313.84,-14.106C314.528,-12.449 314.872,-10.684 314.872,-8.809L314.872,4.747L338.122,4.747L338.122,-4.59C338.122,-5.153 338.09,-5.762 338.028,-6.418C337.965,-7.074 337.809,-7.699 337.559,-8.293C337.309,-8.887 336.934,-9.371 336.434,-9.746C335.934,-10.121 335.215,-10.309 334.278,-10.309C333.153,-10.309 332.106,-9.887 331.137,-9.043C330.168,-8.199 329.309,-7.34 328.559,-6.465L326.215,-8.434C327.153,-9.746 328.325,-11.199 329.731,-12.793C331.137,-14.387 332.84,-15.903 334.84,-17.34C336.84,-18.778 339.137,-19.981 341.731,-20.949C344.325,-21.918 347.215,-22.403 350.403,-22.403C353.153,-22.403 355.559,-22.043 357.622,-21.324C359.684,-20.606 361.403,-19.637 362.778,-18.418C364.153,-17.199 365.184,-15.762 365.872,-14.106C366.559,-12.449 366.903,-10.684 366.903,-8.809L366.903,4.747L391.747,4.747L391.747,-54.465C391.747,-56.278 391.325,-57.856 390.481,-59.199C389.637,-60.543 388.215,-61.215 386.215,-61.215C385.153,-61.215 384.231,-61.043 383.45,-60.699C382.668,-60.356 381.84,-59.84 380.965,-59.153L379.09,-61.403C380.528,-62.59 382.122,-63.762 383.872,-64.918C385.622,-66.074 387.543,-67.09 389.637,-67.965C391.731,-68.84 393.965,-69.559 396.34,-70.121C398.715,-70.684 401.215,-70.965 403.84,-70.965C407.903,-70.965 411.059,-70.418 413.309,-69.324C415.559,-68.231 417.215,-66.887 418.278,-65.293C419.34,-63.699 419.981,-62.012 420.2,-60.231C420.418,-58.449 420.528,-56.871 420.528,-55.496L420.528,3.097C422.715,0.16 425.059,-2.824 427.559,-5.856C430.059,-8.887 432.747,-11.621 435.622,-14.059C438.497,-16.496 441.622,-18.496 444.997,-20.059C448.372,-21.621 452.059,-22.403 456.059,-22.403C459.622,-22.403 462.59,-21.699 464.965,-20.293C467.34,-18.887 469.262,-17.199 470.731,-15.231C472.2,-13.262 473.231,-11.215 473.825,-9.09C474.418,-6.965 474.715,-5.153 474.715,-3.653C474.715,-0.903 474.356,1.957 473.637,4.926C472.918,7.894 471.7,10.832 469.981,13.738C468.262,16.644 465.965,19.457 463.09,22.176C460.215,24.894 456.59,27.379 452.215,29.629C458.09,42.066 463.809,52.769 469.372,61.738C474.934,70.707 480.293,78.082 485.45,83.863C490.606,89.644 495.559,93.91 500.309,96.66C505.059,99.41 509.59,100.785 513.903,100.785C514.653,100.785 515.403,100.691 516.153,100.504C516.903,100.316 517.59,100.097 518.215,99.847C518.903,99.597 519.622,99.285 520.372,98.91L522.153,102.191C520.465,103.129 518.747,104.019 516.997,104.863C515.247,105.707 513.247,106.441 510.997,107.066C508.747,107.691 506.153,108.191 503.215,108.566C500.278,108.941 496.778,109.129 492.715,109.129C489.028,109.129 485.387,108.691 481.793,107.816C478.2,106.941 474.59,105.379 470.965,103.129C467.34,100.879 463.668,97.879 459.95,94.129C456.231,90.379 452.418,85.629 448.512,79.879C444.606,74.129 440.59,67.285 436.465,59.347C432.34,51.41 428.059,42.129 423.622,31.504C429.622,27.066 434.34,22.957 437.778,19.176C441.215,15.394 443.809,11.972 445.559,8.91C447.309,5.847 448.403,3.129 448.84,0.754C449.278,-1.621 449.497,-3.653 449.497,-5.34C449.497,-5.59 449.465,-6.012 449.403,-6.606C449.34,-7.199 449.137,-7.778 448.793,-8.34C448.45,-8.903 447.95,-9.403 447.293,-9.84C446.637,-10.278 445.715,-10.496 444.528,-10.496C442.215,-10.496 439.872,-9.512 437.497,-7.543C435.122,-5.574 432.856,-3.137 430.7,-0.231C428.543,2.676 426.59,5.801 424.84,9.144C423.09,12.488 421.653,15.535 420.528,18.285L420.528,66.66C420.528,67.472 420.387,68.441 420.106,69.566C419.825,70.691 419.168,71.754 418.137,72.754C417.106,73.754 415.606,74.613 413.637,75.332C411.668,76.051 409.028,76.41 405.715,76.41C402.403,76.41 399.809,76.019 397.934,75.238C396.059,74.457 394.668,73.535 393.762,72.472C392.856,71.41 392.293,70.316 392.075,69.191C391.856,68.066 391.747,67.16 391.747,66.472L391.747,10.426L366.903,10.426L366.903,58.597C366.903,59.16 366.934,59.769 366.997,60.426C367.059,61.082 367.215,61.707 367.465,62.301C367.715,62.894 368.09,63.379 368.59,63.754C369.09,64.129 369.809,64.316 370.747,64.316C371.934,64.316 372.997,63.894 373.934,63.051C374.872,62.207 375.747,61.347 376.559,60.472L378.809,62.441C377.872,63.754 376.7,65.207 375.293,66.801C373.887,68.394 372.184,69.91 370.184,71.347C368.184,72.785 365.903,73.988 363.34,74.957C360.778,75.926 357.872,76.41 354.622,76.41C351.872,76.41 349.481,76.051 347.45,75.332C345.418,74.613 343.7,73.644 342.293,72.426C340.887,71.207 339.84,69.769 339.153,68.113C338.465,66.457 338.122,64.691 338.122,62.816L338.122,58.597C334.997,61.972 331.715,64.941 328.278,67.504C326.778,68.629 325.184,69.722 323.497,70.785C321.809,71.847 320.059,72.801 318.247,73.644C316.434,74.488 314.559,75.16 312.622,75.66C310.684,76.16 308.747,76.41 306.809,76.41C303.059,76.41 299.856,75.738 297.2,74.394C294.543,73.051 292.403,71.285 290.778,69.097C289.153,66.91 287.965,64.441 287.215,61.691C286.465,58.941 286.09,56.191 286.09,53.441L286.09,10.426L266.801,10.426C266.697,11.527 266.58,12.647 266.45,13.785C265.793,19.535 264.793,25.316 263.45,31.129C262.106,36.941 260.403,42.566 258.34,48.004C256.278,53.441 253.825,58.269 250.981,62.488C248.137,66.707 244.918,70.082 241.325,72.613C237.731,75.144 233.715,76.41 229.278,76.41C224.09,76.41 219.59,74.91 215.778,71.91C211.965,68.91 208.731,65.004 206.075,60.191C203.418,55.379 201.215,49.972 199.465,43.972C197.715,37.972 196.293,31.957 195.2,25.926C194.532,22.242 193.945,18.676 193.441,15.225C193.174,13.406 194.285,13.827 194.727,13.945C195.605,14.18 198.967,15.223 203.263,15.158L223.658,15.158C225.261,25.095 226.978,33.169 228.809,39.379C231.684,49.129 235.09,54.004 239.028,54.004C241.215,54.004 243.325,52.816 245.356,50.441C247.387,48.066 249.168,44.816 250.7,40.691C252.231,36.566 253.465,31.754 254.403,26.254C255.25,21.284 255.714,16.008 255.796,10.426L203.263,10.426C199.7,10.305 198.219,9.736 196.218,8.944C195.302,8.581 193.058,7.066 190.989,9.634C190.586,10.135 190.203,10.668 189.785,11.167C188.379,12.844 186.662,14.166 183.79,14.166C180.148,14.166 178.148,11.474 177.029,7.703C176.523,6 176.18,4.077 175.533,2.585C175.499,2.508 175.469,2.43 175.439,2.352C175.369,2.188 175.213,2.077 175.035,2.066C174.857,2.055 174.689,2.145 174.599,2.299C174.453,2.539 174.309,2.801 174.206,3.039C172.984,5.838 172.108,10.221 171.203,14.598C170.02,20.317 168.753,26.012 167.008,28.929C165.67,31.166 163.653,32.183 162.138,32.171C159.822,32.153 158.454,30.126 157.916,29.032C155.875,24.879 154.749,13.363 153.865,1.828C153.423,-3.936 153.014,-9.701 152.505,-14.445C152.478,-14.679 152.283,-14.857 152.048,-14.863C151.812,-14.87 151.608,-14.703 151.568,-14.471C150.463,-7.596 149.435,1.716 148.417,11.027C146.778,26.007 145.141,40.98 143.368,46.372C142.86,47.917 141.755,50.459 139.326,50.387C136.551,50.305 135.709,47.429 135.288,45.697C133.693,39.136 132.547,20.916 131.397,2.693C130.76,-7.399 130.114,-17.491 129.366,-25.532C129.342,-25.775 129.138,-25.959 128.894,-25.959C128.65,-25.958 128.447,-25.773 128.424,-25.53C127.612,-16.303 126.929,-4.279 126.263,7.743C125.144,27.964 124.059,48.182 122.554,55.462C122.179,57.275 121.353,60.532 118.565,60.532C115.777,60.532 114.966,57.348 114.596,55.565C113.14,48.546 112.185,29.051 111.141,9.554C110.425,-3.822 109.662,-17.199 108.629,-26.405C108.6,-26.64 108.401,-26.817 108.164,-26.819C107.926,-26.822 107.724,-26.648 107.691,-26.413C106.714,-18.911 105.923,-8.726 105.167,1.459C103.958,17.732 102.821,34.002 101.276,39.861C100.847,41.488 100.268,42.552 99.792,43.078L99.181,43.62L98.593,43.952L97.298,44.224L96.113,44.01L95.201,43.508C94.618,43.068 93.938,42.219 93.434,40.858C91.951,36.853 91.007,25.734 90.121,14.607C89.577,7.783 89.033,0.958 88.32,-4.072C88.286,-4.295 88.099,-4.462 87.874,-4.472C87.649,-4.482 87.448,-4.332 87.394,-4.114C86.587,-0.659 85.896,3.489 85.235,7.222C84.343,12.259 83.397,16.596 82.482,18.144C82.482,18.144 81.458,19.878 79.41,20.084C77.823,20.244 76.142,18.393 76.142,18.393C76.062,18.289 75.983,18.175 75.905,18.053C75.155,16.875 74.525,14.871 74.039,12.589C73.916,12.013 73.74,11.24 73.549,10.426C73.505,10.238 73.461,10.049 73.416,9.859ZM338.122,10.426L314.872,10.426L314.872,53.816C314.872,54.691 315.012,55.582 315.293,56.488C315.575,57.394 315.981,58.222 316.512,58.972C317.043,59.722 317.715,60.332 318.528,60.801C319.34,61.269 320.309,61.504 321.434,61.504C323.247,61.504 325.059,61.035 326.872,60.097C328.684,59.16 330.34,58.051 331.84,56.769C333.34,55.488 334.637,54.222 335.731,52.972C336.825,51.722 337.622,50.785 338.122,50.16L338.122,10.426ZM191.265,-1.628C191.118,-2.744 190.976,-3.794 190.84,-4.778C190.465,-7.278 189.856,-9.215 189.012,-10.59C188.168,-11.965 186.747,-12.653 184.747,-12.653C183.684,-12.653 182.762,-12.465 181.981,-12.09C181.2,-11.715 180.372,-11.184 179.497,-10.496L177.622,-12.84C179.059,-14.028 180.668,-15.199 182.45,-16.356C184.231,-17.512 186.153,-18.528 188.215,-19.403C190.278,-20.278 192.497,-20.996 194.872,-21.559C197.247,-22.121 199.747,-22.403 202.372,-22.403C206.122,-22.403 209.153,-21.762 211.465,-20.481C213.778,-19.199 215.606,-17.606 216.95,-15.699C218.293,-13.793 219.247,-11.746 219.809,-9.559C220.372,-7.371 220.778,-5.403 221.028,-3.653C221.18,-2.41 221.332,-1.188 221.487,0.015L203.263,0.015C197.956,-0.124 197.631,-2.314 191.265,-1.628ZM138.827,-42.713C139.119,-43.198 139.286,-43.478 139.316,-43.527C139.316,-43.527 141.856,-47.95 142.019,-48.227C142.613,-49.234 143.159,-50.221 143.657,-51.188C144.292,-52.42 144.803,-53.572 145.191,-54.643C145.578,-55.714 145.765,-56.626 145.752,-57.377C145.752,-57.405 145.751,-57.433 145.751,-57.461C145.751,-57.535 145.754,-57.608 145.752,-57.679C145.724,-59.307 145.448,-61.326 141.205,-61.521C133.624,-61.868 121.64,-61.651 118.631,-61.651C114.607,-61.651 111.266,-61.167 108.609,-60.2C105.953,-59.232 103.76,-58.043 102.029,-56.631C100.298,-55.22 98.889,-53.668 97.803,-51.975C96.716,-50.281 95.77,-48.729 94.965,-47.318C94.422,-46.365 93.888,-45.513 93.363,-44.763C93.11,-44.402 92.859,-44.064 92.611,-43.749C91.846,-42.782 90.86,-42.298 89.652,-42.298C88.284,-42.298 87.097,-42.741 86.09,-43.628C85.084,-44.515 84.259,-45.624 83.615,-46.955C82.971,-48.285 82.488,-49.737 82.166,-51.309C81.858,-52.815 81.697,-54.264 81.684,-55.659C81.683,-55.721 81.683,-55.783 81.683,-55.845C81.683,-58.023 82.609,-60.038 84.46,-61.893C86.312,-63.748 89.008,-65.341 92.55,-66.671C96.092,-68.002 100.419,-69.05 105.53,-69.816C110.642,-70.582 116.498,-70.965 123.099,-70.965C133.805,-70.965 145.96,-70.522 152.682,-69.635C159.403,-68.748 164.656,-67.558 168.439,-66.066C172.223,-64.574 174.799,-62.78 176.167,-60.684C177.315,-58.925 177.981,-57.053 178.166,-55.068C178.202,-54.686 178.22,-54.3 178.22,-53.91C178.22,-53.865 178.219,-53.82 178.219,-53.775C178.219,-53.719 178.22,-53.663 178.22,-53.607C178.22,-52.317 177.918,-50.886 177.314,-49.313C177.205,-49.03 177.093,-48.749 176.977,-48.471C176.875,-48.227 176.769,-47.983 176.661,-47.74C176.009,-46.265 175.214,-44.65 174.275,-42.894C172.988,-40.488 171.389,-37.665 169.476,-34.423C168.453,-32.586 167.283,-30.552 165.966,-28.322L163.059,-23.425C161.808,-31.421 157.003,-34.959 152.611,-35.061C147.675,-35.177 143.088,-30.943 141.283,-23.642C140.57,-32.243 139.779,-39.239 138.827,-42.713ZM107.929,53.191C108.763,59.321 109.794,63.976 115.35,65.972C118.71,67.179 123.726,67.127 131.356,66.659C136.925,66.317 142.752,65.433 148.838,64.006C152.854,63.064 156.182,61.994 158.823,60.796C161.464,59.597 163.649,58.442 165.379,57.329C167.019,56.273 168.384,55.34 169.476,54.529C169.535,54.485 169.594,54.441 169.652,54.397C170.772,53.556 171.818,53.021 172.792,52.793C173.45,52.638 174.074,52.693 174.663,52.957C174.891,53.058 175.113,53.191 175.33,53.355C176.11,53.944 176.83,54.691 177.491,55.597C178.152,56.503 178.699,57.468 179.131,58.492C179.562,59.516 179.857,60.363 180.013,61.034C180.236,61.986 180.355,62.813 180.37,63.515C180.383,64.117 180.32,64.627 180.181,65.046C179.879,65.953 179.086,66.814 177.8,67.63C176.163,68.592 173.925,69.519 171.084,70.411C168.243,71.302 165.18,72.133 161.894,72.904C157.208,74.003 151.991,74.889 146.243,75.562C140.495,76.235 134.638,76.58 128.672,76.597C128.542,76.597 128.412,76.596 128.282,76.597C128.179,76.598 128.075,76.602 127.971,76.604L127.902,76.605C127.697,76.609 127.493,76.613 127.289,76.616C117.165,76.789 108.941,76.546 102.616,75.874C96.29,75.202 91.367,74.255 87.845,73.032C84.323,71.81 81.939,70.396 80.692,68.79C79.445,67.183 78.807,65.535 78.777,63.845C78.775,63.712 78.775,63.578 78.776,63.444C78.79,62.126 78.983,60.753 79.355,59.326C79.765,57.754 80.438,55.988 81.373,54.031C82.307,52.073 83.503,49.814 84.958,47.252C85.736,45.883 86.601,44.392 87.553,42.779C91.958,53.525 104.221,52.272 106.881,42.565C107.205,46.786 107.551,50.418 107.929,53.191Z" style="fill:url(#_Linear1);"/>
        </g>
    </g>
    <defs>
        <linearGradient id="_Linear1" x1="0" y1="0" x2="1" y2="0" gradientUnits="userSpaceOnUse" gradientTransform="matrix(0.0469699,166.593,-166.593,0.0469699,408.181,-108.991)"><stop offset="0" style="stop-color:rgb(91,33,182);stop-opacity:1"/><stop offset="0.37" style="stop-color:rgb(102,46,197);stop-opacity:1"/><stop offset="0.69" style="stop-color:rgb(139,92,246);stop-opacity:1"/><stop offset="1" style="stop-color:rgb(91,33,182);stop-opacity:1"/></linearGradient>
    </defs>
</svg>
